<svg xmlns="http://www.w3.org/2000/svg" version="1.1" xmlns:xlink="http://www.w3.org/1999/xlink" width="512" height="512" x="0" y="0" viewBox="0 0 68 68" style="enable-background:new 0 0 512 512" xml:space="preserve"><g><path d="M50.584 64.504a1 1 0 0 1-1-1v-9.257a1 1 0 1 1 2 0v9.257a1 1 0 0 1-1 1z" fill="#ffffff" opacity="1" data-original="#000000"></path><path d="M46.714 62.411a1 1 0 0 1-.548-1.837l7.742-5.07a1.001 1.001 0 0 1 1.095 1.673l-7.742 5.071a.998.998 0 0 1-.547.163z" fill="#ffffff" opacity="1" data-original="#000000"></path><path d="M54.516 62.316a.999.999 0 0 1-.526-.15l-7.865-4.88a1 1 0 0 1 1.054-1.7l7.865 4.88a1 1 0 0 1-.528 1.85zM51.987 47.207a1 1 0 0 1-.996-.922l-1.935-24.542a83.223 83.223 0 0 1-.185-3.513C48.755 15.122 47.5 7.58 38.35 4.67a14.538 14.538 0 0 0-8.759.012C20.39 7.63 19.207 15.236 19.125 18.369c-.029 1.101-.069 1.946-.131 2.74l-1.985 25.176a1.001 1.001 0 0 1-1.994-.156L17 20.953c.06-.758.098-1.57.125-2.636.073-2.778 1.142-12.107 11.858-15.538a16.553 16.553 0 0 1 9.974-.014c10.65 3.387 11.81 12.638 11.912 15.392.039 1.083.089 2.248.181 3.43l1.935 24.542a1.001 1.001 0 0 1-.998 1.078z" fill="#ffffff" opacity="1" data-original="#000000"></path><path d="M62.619 65.997a1 1 0 0 1-1-1v-6.522c0-6.281-5.103-11.39-11.375-11.39H17.756c-6.272 0-11.375 5.109-11.375 11.39v6.522a1 1 0 1 1-2 0v-6.522c0-7.384 6-13.39 13.375-13.39h32.488c7.375 0 13.375 6.006 13.375 13.39v6.522a1 1 0 0 1-1 1z" fill="#ffffff" opacity="1" data-original="#000000"></path><path d="M34 65.333c-2.967 0-5.495-1.71-6.597-4.466l-5.769-14.41a1 1 0 0 1 1.858-.745l5.768 14.412c.947 2.366 3.07 3.21 4.74 3.21 1.67 0 3.793-.844 4.74-3.209l5.767-14.412a1 1 0 0 1 1.858.742l-5.768 14.412c-1.102 2.755-3.63 4.466-6.597 4.466z" fill="#ffffff" opacity="1" data-original="#000000"></path><path d="M39.584 47.084H28.417a.998.998 0 0 1-.986-1.17c.526-3.05.473-4.156.003-6.633a.999.999 0 0 1 1.646-.936c3.092 2.738 6.783 2.719 9.837-.012a1 1 0 0 1 1.643.966c-.674 2.98-.825 4.138-.03 6.461a1 1 0 0 1-.946 1.324zm-9.996-2h8.662c-.31-1.312-.32-2.417-.127-3.747-2.684 1.457-5.68 1.44-8.37-.064.102 1.164.057 2.264-.165 3.811z" fill="#ffffff" opacity="1" data-original="#000000"></path><path d="M33.993 42.429c-7.147 0-12.487-9.736-12.487-18.442 0-4.583 1.462-8.99 4.012-12.09a.995.995 0 0 1 .679-.36.96.96 0 0 1 .734.226c.027.023.06.054.085.079.072.075 7.343 7.486 18.514 9.224a1 1 0 0 1 .871.9c.061.666.093 1.347.093 2.02 0 8.707-5.346 18.443-12.501 18.443zm-7.58-28.4c-1.858 2.68-2.907 6.244-2.907 9.958 0 8.452 5.096 16.442 10.487 16.442 5.397 0 10.5-7.99 10.5-16.442 0-.357-.01-.715-.028-1.072-9.336-1.67-15.828-6.87-18.052-8.886z" fill="#ffffff" opacity="1" data-original="#000000"></path></g></svg>