<svg xmlns="http://www.w3.org/2000/svg" version="1.1" xmlns:xlink="http://www.w3.org/1999/xlink" width="512" height="512" x="0" y="0" viewBox="0 0 511.995 511.995" style="enable-background:new 0 0 512 512" xml:space="preserve" class=""><g><path d="M132.762 172.143c12.594-2.737 24.173-9.443 32.787-19.152M167.861 183.87c-13.214 8.854-28.801 14.027-44.902 14.598M344.186 183.904c13.463 9.008 29.387 14.196 45.803 14.592M379.225 172.141c-12.252-2.664-23.544-9.085-32.077-18.373M170.72 51.073c20.792-18.388 51.54-30.026 85.846-30.026 33.963 0 64.438 11.405 85.218 29.475" style="stroke-width:15;stroke-linecap:round;stroke-linejoin:round;stroke-miterlimit:10;" fill="none" stroke="#ffffff" stroke-width="15" stroke-linecap="round" stroke-linejoin="round" stroke-miterlimit="10" data-original="#000000" opacity="1"></path><path d="M324.846 335.661a91.522 91.522 0 0 0-5.678-41.298v0a82.101 82.101 0 0 1-5.45-29.416v0a76.17 76.17 0 0 1 13.213-42.876h0a110.706 110.706 0 0 0 19.203-62.314V86.843M165.861 86.843v72.913c0 22.228 6.691 43.942 19.203 62.314h0a76.174 76.174 0 0 1 13.213 42.876v0a82.105 82.105 0 0 1-5.45 29.416h0a91.53 91.53 0 0 0-3.921 52.528l29.787 134.86a5.001 5.001 0 0 0 2.212 3.149h0a65.36 65.36 0 0 0 67.023 1.664l2.978-1.681a4.998 4.998 0 0 0 2.425-3.276l10.859-49.161" style="stroke-width:15;stroke-linecap:round;stroke-linejoin:round;stroke-miterlimit:10;" fill="none" stroke="#ffffff" stroke-width="15" stroke-linecap="round" stroke-linejoin="round" stroke-miterlimit="10" data-original="#000000" opacity="1"></path><path d="M64.435 136.09c-20.377-8.293-32.172-31.936-23.215-53.965.251-.617.513-1.231.786-1.842 10.253-22.919 33.887-36.337 58.832-33.399a59.07 59.07 0 0 1 31.424 13.694l13.448 11.431a113.816 113.816 0 0 0 25.521 16.385l7.084 3.727a29.211 29.211 0 0 1 15.611 25.852v37.164a78.545 78.545 0 0 0 17.943 49.967l4.75 5.761a89.662 89.662 0 0 1 20.483 57.039v52.974c0 5.59-4.532 10.122-10.122 10.122h0a10.111 10.111 0 0 1-8.633-4.842l-.775-1.268c-4.193-6.866-13.284-8.819-19.976-4.243h0a21.793 21.793 0 0 0-9.706 20.093l.148 1.691M28.128 47.497c-5.2 6.14-9.61 13.1-13.03 20.75-13.27 29.65-8.94 63.87 11.29 89.29l7.17 9.01M233.478 75.687c7.47 1.09 14.99 1.64 22.52 1.64 9.39 0 18.78-.85 28.06-2.54 9.28-1.69 18.44-4.23 27.36-7.61 8.98-3.4 17.62-7.56 25.86-12.42 8.23-4.86 16.05-10.42 23.36-16.64 13.37-11.36 29.64-18.46 47.06-20.51 37.8-4.47 73.66 15.89 89.2 50.64 13.27 29.65 8.94 63.87-11.29 89.29l-6.83 8.58M55.768 25.887c14.63-7.22 31.38-10.31 48.53-8.28a88.744 88.744 0 0 1 25.05 6.76 88.759 88.759 0 0 1 22.01 13.75c7.31 6.22 15.13 11.78 23.36 16.64 7.94 4.69 16.26 8.72 24.9 12.05" style="stroke-width:15;stroke-linecap:round;stroke-linejoin:round;stroke-miterlimit:10;" fill="none" stroke="#ffffff" stroke-width="15" stroke-linecap="round" stroke-linejoin="round" stroke-miterlimit="10" data-original="#000000" opacity="1"></path><path d="M275.048 262.757a89.668 89.668 0 0 1 20.33-51.89l4.75-5.76a78.557 78.557 0 0 0 17.94-49.97v-37.16c0-10.85 6.01-20.8 15.61-25.86l7.09-3.72c9.24-4.33 17.8-9.83 25.52-16.39 6.56-5.57 13.45-11.43 13.45-11.43a59.058 59.058 0 0 1 31.42-13.69c24.94-2.94 48.58 10.48 58.83 33.4.27.61.54 1.22.79 1.84 8.85 21.77-2.57 45.12-22.51 53.67M274.898 297.757v23.12a10.106 10.106 0 0 0 10.12 10.12c3.52 0 6.79-1.83 8.63-4.84.25-.41.51-.83.78-1.27 2.65-4.34 7.27-6.72 11.99-6.72 2.75 0 5.52.8 7.98 2.48 5.43 3.58 8.91 9.35 9.64 15.66M194.328 371.436h0a17 17 0 0 0 9.875 11.946h0a130.95 130.95 0 0 0 95.246 3.26M204.849 419.066h0a13.693 13.693 0 0 0 7.955 9.624h0a109.201 109.201 0 0 0 86.387 0h0a13.709 13.709 0 0 0 2.816-1.634" style="stroke-width:15;stroke-linecap:round;stroke-linejoin:round;stroke-miterlimit:10;" fill="none" stroke="#ffffff" stroke-width="15" stroke-linecap="round" stroke-linejoin="round" stroke-miterlimit="10" data-original="#000000" opacity="1"></path><ellipse cx="82.061" cy="176.407" rx="51.355" ry="43.316" style="stroke-width:15;stroke-linecap:round;stroke-linejoin:round;stroke-miterlimit:10;" transform="rotate(-24.746 82.055 176.397)" fill="none" stroke="#ffffff" stroke-width="15" stroke-linecap="round" stroke-linejoin="round" stroke-miterlimit="10" data-original="#000000" opacity="1"></ellipse><path d="M479.808 192.137c5.61-20.57-7.08-44.23-30.61-55.07-25.75-11.87-54.75-3.88-64.77 17.84-10.01 21.73 2.75 48.97 28.51 60.84 14.55 6.7 30.12 7.07 42.73 2.21" style="stroke-width:15;stroke-linecap:round;stroke-linejoin:round;stroke-miterlimit:10;" fill="none" stroke="#ffffff" stroke-width="15" stroke-linecap="round" stroke-linejoin="round" stroke-miterlimit="10" data-original="#000000" opacity="1"></path><circle cx="393.663" cy="400.786" r="94.214" style="stroke-width:15;stroke-linecap:round;stroke-linejoin:round;stroke-miterlimit:10;" fill="none" stroke="#ffffff" stroke-width="15" stroke-linecap="round" stroke-linejoin="round" stroke-miterlimit="10" data-original="#000000" opacity="1"></circle><path d="M342.948 383.557h33.487v-33.486h34.456v33.486h33.487v34.457h-33.487V451.5h-34.456v-33.486h-33.487z" style="stroke-width:15;stroke-linecap:round;stroke-linejoin:round;stroke-miterlimit:10;" fill="none" stroke="#ffffff" stroke-width="15" stroke-linecap="round" stroke-linejoin="round" stroke-miterlimit="10" data-original="#000000" opacity="1"></path></g></svg>