<svg xmlns="http://www.w3.org/2000/svg" version="1.1" xmlns:xlink="http://www.w3.org/1999/xlink" width="512" height="512" x="0" y="0" viewBox="0 0 64 64" style="enable-background:new 0 0 512 512" xml:space="preserve" class=""><g><g data-name="17 Cancer"><path d="M46.012 47.394a4.967 4.967 0 0 0-3.535 1.464L37.335 54H33.27a5 5 0 0 0-3.986-8.021h-12.97a4.973 4.973 0 0 0-3.536 1.464l-8.485 8.486a1 1 0 0 0 1.414 1.414l8.485-8.486a2.987 2.987 0 0 1 2.122-.878h12.97a3 3 0 1 1 0 6H18.9a1 1 0 0 0-.912.623 1.017 1.017 0 0 0 .217 1.1.993.993 0 0 0 .715.3h18.829a1 1 0 0 0 .707-.293l5.435-5.435a3.075 3.075 0 0 1 4.243 0 3 3 0 0 1 0 4.243l-6.608 6.606a2.974 2.974 0 0 1-2.12.879h-26.9a1 1 0 0 0 0 2h26.9a4.965 4.965 0 0 0 3.535-1.465l6.607-6.606a5 5 0 0 0-3.536-8.535ZM38.194 30.6a1 1 0 0 0 1.4.2l3.645-2.734 6.355 1.271a.962.962 0 0 0 .2.019 1 1 0 0 0 .2-1.98l-6.153-1.23-.706-3.3A8.042 8.042 0 0 0 46.994 16v-5a1 1 0 0 0-1-1h-1.877a4.274 4.274 0 0 1-4.153-3.242 1 1 0 0 0-1.94 0A4.276 4.276 0 0 1 33.871 10a1 1 0 0 0 0 2 6.271 6.271 0 0 0 5.123-2.644A6.271 6.271 0 0 0 44.117 12h.877v4a6.027 6.027 0 0 1-3.43 5.414 1 1 0 0 0-.548 1.112l.867 4.058-3.489 2.616a1 1 0 0 0-.2 1.4ZM8.011 42h.017a1 1 0 0 0 .984-1.017L9 40.281a3.005 3.005 0 0 1 2.413-2.943l6.347-1.268 3.64 2.73a1 1 0 0 0 1.2 0l3.645-2.734 6.355 1.271a3.008 3.008 0 0 1 2.412 2.942V41a1 1 0 0 0 2 0v-.721a5.014 5.014 0 0 0-4.019-4.9l-6.153-1.23-.706-3.3A8.042 8.042 0 0 0 30 24v-5a1 1 0 0 0-1-1h-1.877a4.274 4.274 0 0 1-4.153-3.242 1 1 0 0 0-1.94 0A4.276 4.276 0 0 1 16.876 18H15a1 1 0 0 0-1 1v5a8.042 8.042 0 0 0 3.866 6.841l-.707 3.31-6.138 1.226A5.015 5.015 0 0 0 7 40.3l.012.718a1 1 0 0 0 .999.982ZM16 24v-4h.876A6.273 6.273 0 0 0 22 17.356 6.27 6.27 0 0 0 27.123 20H28v4a6.027 6.027 0 0 1-3.43 5.414 1 1 0 0 0-.548 1.112l.867 4.058L22 36.75l-2.889-2.166.867-4.058a1 1 0 0 0-.548-1.112A6.027 6.027 0 0 1 16 24Z" fill="#ffffff" opacity="1" data-original="#000000"></path><path d="M11.012 34a1 1 0 0 0 1-1V20c0-5.215 4.2-9 9.994-9s10.006 3.785 10.006 9v13a1 1 0 0 0 2 0V20c0-6.374-5.05-11-12.006-11s-11.994 4.626-11.994 11v13a1 1 0 0 0 1 1ZM28.563 8.419a1 1 0 0 0 1.322-.5A10 10 0 0 1 49.006 12v13a1 1 0 0 0 2 0V12A12 12 0 0 0 28.06 7.1a1 1 0 0 0 .503 1.319ZM59 36h-4v-4a1 1 0 0 0-1-1h-4a1 1 0 0 0-1 1v4h-4a1 1 0 0 0-1 1v4a1 1 0 0 0 1 1h4v4a1 1 0 0 0 1 1h4a1 1 0 0 0 1-1v-4h4a1 1 0 0 0 1-1v-4a1 1 0 0 0-1-1Zm-1 4h-4a1 1 0 0 0-1 1v4h-2v-4a1 1 0 0 0-1-1h-4v-2h4a1 1 0 0 0 1-1v-4h2v4a1 1 0 0 0 1 1h4Z" fill="#ffffff" opacity="1" data-original="#000000"></path></g></g></svg>