<svg xmlns="http://www.w3.org/2000/svg" version="1.1" xmlns:xlink="http://www.w3.org/1999/xlink" width="512" height="512" x="0" y="0" viewBox="0 0 511.998 511.998" style="enable-background:new 0 0 512 512" xml:space="preserve" class=""><g><path d="M95.999 10c17.239 64.335 5.736 117.262-11.12 168.548m-20.731 59.716c-7.654 22.535-14.586 45.485-18.848 69.665m-1.088 89.669c5.068 31.651 16.397 66.061 36.786 104.4M415.999 10c-12.016 44.845-10.063 84.145-2.072 121.212m17.179 59.184c30.643 89.24 72.133 175.765-.106 311.602M318 384.998l-62.001 48.999-62.001-48.999M255.999 433.997v68.001M20 197.446l42.426-42.426 60.104 67.175-35.355 35.355zM108.388 243.408l59.751 59.75M491.998 134.614l-42.426-42.427-60.104 67.175 35.355 35.356zM403.61 180.575l-59.751 59.751M154.738 325.904a90.985 90.985 0 0 1 33.306-33.306M355.044 261.905a90.985 90.985 0 0 0-33.306-33.306" style="fill-rule:evenodd;clip-rule:evenodd;stroke-width:20;stroke-linecap:round;stroke-linejoin:round;stroke-miterlimit:22.9256;" fill-rule="evenodd" clip-rule="evenodd" fill="none" stroke="#f50963" stroke-width="20" stroke-linecap="round" stroke-linejoin="round" stroke-miterlimit="22.9256" data-original="#000000" opacity="1" class=""></path><path d="M40.934 352.717h.007" style="fill-rule:evenodd;clip-rule:evenodd;stroke-width:20;stroke-linecap:round;stroke-linejoin:round;stroke-miterlimit:2.6131;" fill-rule="evenodd" clip-rule="evenodd" fill="none" stroke="#f50963" stroke-width="20" stroke-linecap="round" stroke-linejoin="round" stroke-miterlimit="2.6131" data-original="#000000" opacity="1" class=""></path></g></svg>