<svg xmlns="http://www.w3.org/2000/svg" version="1.1" xmlns:xlink="http://www.w3.org/1999/xlink" width="512" height="512" x="0" y="0" viewBox="0 0 40 60" style="enable-background:new 0 0 512 512" xml:space="preserve" class=""><g><g fill="#000" fill-rule="nonzero"><path d="M7.686 51.033A22.04 22.04 0 0 0 6 59a1 1 0 0 0 1 1h30a1 1 0 0 0 .986-1.165c-.082-.5-2.07-12.24-6.091-20.281a15.487 15.487 0 0 1-1.37-6.487c2.116.422 4.252.732 6.4.93L37 33a1 1 0 0 0 .97-.757c1.611-6.441 1.319-15.359 1.126-21.26-.051-1.57-.1-2.932-.1-3.96a7.6 7.6 0 0 0-2.144-5.28A5.409 5.409 0 0 0 32.95 0H21.167A2.981 2.981 0 0 0 18.6 1.451a18.248 18.248 0 0 1-5.286 5.742c-.53.35-1.094.645-1.684.879A5.91 5.91 0 0 0 7.876 13.9a7.045 7.045 0 0 0 2.289 4.949c-.21.075-.413.162-.612.261a4.51 4.51 0 0 0-2.431 3.033A15.86 15.86 0 0 0 0 36c0 8.3 4.005 12.721 7.686 15.033zM20.31 2.486A1 1 0 0 1 21.167 2h4.766c-.208 1.937-1.1 6-4.933 6-1.63 0-3.257-.155-4.858-.461a22.2 22.2 0 0 0 4.168-5.053zM9.875 13.832a3.9 3.9 0 0 1 2.491-3.9 11.2 11.2 0 0 0 1.639-.832c2.285.598 4.638.9 7 .9 4.991 0 6.667-4.777 6.95-8h1.791a53.294 53.294 0 0 0-.954 20.151 34.688 34.688 0 0 0-4.688-.577 17.753 17.753 0 0 1-3.783-.523c-.84-.28-1.7-.633-2.524-.974a23.021 23.021 0 0 0-4.037-1.386 5.406 5.406 0 0 1-3.885-4.859zm.572 7.063a4.258 4.258 0 0 1 2.759-.279c.082.027.167.044.253.051a22.5 22.5 0 0 1 3.57 1.259c.86.354 1.749.721 2.655 1.023 1.394.369 2.825.576 4.266.619 2.849.213 6.08.454 8.45 2.232a1 1 0 1 0 1.2-1.6c-.819-.6-1.72-1.08-2.674-1.423A50.55 50.55 0 0 1 31.794 2h1.156a3.5 3.5 0 0 1 2.476 1.141A5.7 5.7 0 0 1 37 7c0 1.068.045 2.453.1 4.048.181 5.532.45 13.765-.871 19.869-3.029-.339-13.568-1.817-22.639-6.734A8.83 8.83 0 0 0 9.237 22.1c.255-.526.682-.95 1.21-1.2zM7.985 24H8a6.715 6.715 0 0 1 4.293 1.707c.068.067.144.125.228.171A61.944 61.944 0 0 0 28.5 31.646a17.731 17.731 0 0 0 1.6 7.8c3.173 6.336 5.089 15.369 5.7 18.554H8.051c.154-2.06.626-4.084 1.4-6a23.064 23.064 0 0 0 9.894 2.15c.925 0 1.85-.051 2.77-.154a1 1 0 0 0-.222-1.988 21.275 21.275 0 0 1-12.422-2.239C6.061 47.869 2 43.941 2 36c0-5.207 2.029-9.231 5.985-12z" fill="#c900c9" opacity="1" data-original="#000000" class=""></path><path d="M10.542 44.236c.568.474 1.172.979 1.807 1.523a1 1 0 0 0 1.3 0c.635-.544 1.239-1.049 1.807-1.523C18.8 41.45 21 39.61 21 36.758A4.585 4.585 0 0 0 16.5 32a4.807 4.807 0 0 0-3.5 1.505A4.807 4.807 0 0 0 9.5 32 4.585 4.585 0 0 0 5 36.758c0 2.852 2.2 4.692 5.542 7.478zM9.5 34a3.092 3.092 0 0 1 2.608 1.612 1 1 0 0 0 .886.545H13c.375-.002.718-.212.89-.545A3.091 3.091 0 0 1 16.5 34a2.581 2.581 0 0 1 2.5 2.758c0 1.916-1.815 3.432-4.823 5.943-.377.315-.77.642-1.177.986-.407-.344-.8-.671-1.177-.986C8.815 40.19 7 38.674 7 36.758A2.581 2.581 0 0 1 9.5 34z" fill="#c900c9" opacity="1" data-original="#000000" class=""></path></g></g></svg>