<svg xmlns="http://www.w3.org/2000/svg" version="1.1" xmlns:xlink="http://www.w3.org/1999/xlink" width="512" height="512" x="0" y="0" viewBox="0 0 512 512" style="enable-background:new 0 0 512 512" xml:space="preserve"><g><path d="M393.82 267.16c8.69 0 16.83-3.36 22.94-9.47s9.47-14.25 9.47-22.94-3.36-16.83-9.47-22.94l-63.65-63.65c-7.61-7.61-17.64-10.82-28.25-9.03s-19.04 8.1-23.74 17.78L290 179.83l-38.04-38.04 38.96-38.95c12.65-12.65 12.65-33.23 0-45.88s-33.23-12.65-45.88 0L143.98 157.99c-5.65 5.65-8.76 13.17-8.76 21.19s3.11 15.54 8.76 21.19l88.96 88.96c9.93 9.93 22.44 15.15 35.93 15.15 2.98 0 6-.25 9.06-.77 16.9-2.85 30.32-12.9 37.8-28.32l23.8-49.04 31.34 31.34c6.11 6.11 14.26 9.47 22.95 9.47zm-57-56.93a5.999 5.999 0 0 0-4.4 3.3l-27.48 56.62c-5.82 12-15.85 19.51-29 21.72s-25.08-1.6-34.51-11.03l-88.96-88.96c-3.38-3.38-5.24-7.89-5.24-12.7s1.86-9.32 5.24-12.7L253.5 65.44c3.99-3.99 9.22-5.98 14.46-5.98 5.23 0 10.47 1.99 14.46 5.98 7.97 7.97 7.97 20.94 0 28.91l-43.2 43.2a5.987 5.987 0 0 0 0 8.48l48.25 48.25c1.37 1.37 3.32 2 5.24 1.67a5.999 5.999 0 0 0 4.4-3.3l14.8-30.5c3-6.18 8.17-10.05 14.94-11.19s12.92.82 17.78 5.68l63.65 63.65c3.84 3.84 5.96 8.97 5.96 14.45s-2.12 10.61-5.96 14.45-8.97 5.96-14.45 5.96-10.61-2.12-14.45-5.96l-37.3-37.3a6.087 6.087 0 0 0-5.26-1.66zm-221.06-65.08c16.67 0 33.34-6.34 46.03-19.03 25.38-25.38 25.38-66.67 0-92.05s-66.67-25.38-92.05 0-25.38 66.67 0 92.05c12.68 12.69 29.35 19.03 46.02 19.03zM78.21 42.55c10.35-10.35 23.95-15.52 37.54-15.52s27.19 5.17 37.54 15.52c20.7 20.7 20.7 54.38 0 75.08s-54.38 20.7-75.08 0-20.7-54.38 0-75.08zm409.44 177.84h-4.9c-15.66 0-28.41 12.7-28.41 28.32v60.01c-11.49-6.37-26.3-4.03-35.19 6.31l-43.5 50.58c-6.33 7.37-9.54 16.03-9.54 25.74v35.54c-6.37.78-11.32 6.21-11.32 12.78v17.66c0 4.17 2 7.88 5.09 10.23V491c0 3.31 2.69 6 6 6s6-2.69 6-6v-20.77h75.94V491c0 3.31 2.69 6 6 6s6-2.69 6-6v-23.42c3.08-2.36 5.09-6.06 5.09-10.23v-17.66c0-6.57-4.95-12.01-11.32-12.78v-12.43c0-3.17.84-5.72 2.73-8.26l33-44.47c5.17-6.97 7.69-14.58 7.69-23.26V230.85c-.01-7.18-4.86-10.46-9.36-10.46zm-35.64 218.4c.47 0 .89.42.89.89v17.66c0 .47-.42.89-.89.89h-84.33a.92.92 0 0 1-.89-.89v-17.66c0-.47.42-.89.89-.89zM485 338.47c0 6.1-1.69 11.21-5.33 16.11l-33 44.47c-3.43 4.62-5.09 9.66-5.09 15.41v12.32H378.1v-35.44c0-6.86 2.17-12.72 6.64-17.92l43.5-50.58c5.87-6.82 16.19-7.6 23.02-1.73l2.55 2.19-50.32 58.52a5.993 5.993 0 0 0 .64 8.46 5.993 5.993 0 0 0 8.46-.64l51.32-59.68c2-2.33 2.79-5.29 2.43-8.12V248.7c0-9 7.36-16.32 16.41-16.32H485zM145.9 426.9v-35.54c0-9.71-3.21-18.38-9.55-25.74l-43.5-50.58c-8.9-10.35-23.7-12.68-35.19-6.31v-60.01c0-15.62-12.74-28.32-28.41-28.32h-4.9c-4.5 0-9.35 3.27-9.35 10.46v107.62c0 8.68 2.51 16.29 7.69 23.26l33 44.47c1.89 2.54 2.73 5.09 2.73 8.26v12.43c-6.37.78-11.32 6.21-11.32 12.78v17.66c0 4.17 2 7.88 5.09 10.23V491c0 3.31 2.69 6 6 6s6-2.69 6-6v-20.77h75.94V491c0 3.31 2.69 6 6 6s6-2.69 6-6v-23.42c3.08-2.36 5.09-6.06 5.09-10.23v-17.66c0-6.58-4.96-12.01-11.32-12.79zm-85.91 31.33a.92.92 0 0 1-.89-.89v-17.66c0-.47.42-.89.89-.89h84.33c.47 0 .89.42.89.89v17.66c0 .47-.42.89-.89.89zM32.33 354.58C28.7 349.69 27 344.57 27 338.47V232.39h2.25c9.05 0 16.41 7.32 16.41 16.32v73.14c-.35 2.83.43 5.8 2.43 8.13l51.32 59.68c2.16 2.51 5.95 2.8 8.46.64s2.8-5.95.64-8.46l-50.32-58.52 2.55-2.19c6.82-5.87 17.15-5.09 23.02 1.73l43.5 50.58c4.47 5.2 6.64 11.06 6.64 17.92v35.44H70.42v-12.32c0-5.75-1.67-10.79-5.09-15.41z" fill="#f50963" opacity="1" data-original="#000000"></path></g></svg>