<svg xmlns="http://www.w3.org/2000/svg" version="1.1" xmlns:xlink="http://www.w3.org/1999/xlink" width="512" height="512" x="0" y="0" viewBox="0 0 512 512" style="enable-background:new 0 0 512 512" xml:space="preserve" class=""><g><path d="M253.639 448.548h.083a5.311 5.311 0 0 0-.021-10.623h-.005c-1.022 0-90.967-.801-140.649-73.747-44.446-77.129-8.579-143.616 8.903-168.622 27.882-39.871 70.355-66.218 98.778-61.252a5.297 5.297 0 0 0 6.144-4.323 5.312 5.312 0 0 0-4.323-6.144c-32.747-5.68-78.723 21.899-109.305 65.632-39.415 56.373-42.841 121.984-9.189 180.352 52.852 77.625 144.657 78.727 149.584 78.727zM341.857 160.981a5.31 5.31 0 0 0 5.311-5.265c.047-5.576.233-11.318.571-17.552a5.307 5.307 0 0 0-5.016-5.591c-2.775-.145-5.431 2.085-5.591 5.016a404.143 404.143 0 0 0-.586 18.035 5.314 5.314 0 0 0 5.265 5.358l.046-.001z" fill="#ffffff" opacity="1" data-original="#000000" class=""></path><path d="M345.529 196.962a5.308 5.308 0 0 0-4.02 6.344c7.013 31.295 22.013 62.292 43.378 89.642 45.238 57.84 51.129 114.47-4.521 162.876-6.14 5.13-13.365 9.906-17.896 12.323a5.31 5.31 0 0 0-2.277 7.155 5.307 5.307 0 0 0 7.147 2.282c.215-.11 3.347-1.757 8.07-4.878-1.081 7.708-1.428 17.595 1.095 27.617H230.864c-3.128-5.897-10.376-21.678-9.951-40.457a5.31 5.31 0 0 0-5.187-5.431c-2.941-.163-5.366 2.256-5.431 5.187-.615 26.943 12.423 47.963 12.978 48.845a5.312 5.312 0 0 0 4.494 2.479h156.047c3.757 0 6.342-3.811 4.922-7.311-6.805-16.736-1.899-35.625-.365-40.663 26.945-22.616 78.002-83.086 4.888-176.567-20.405-26.116-34.716-55.652-41.386-85.422a5.306 5.306 0 0 0-6.344-4.021zM162.247 125.117a5.314 5.314 0 0 0 7.402-1.281 5.31 5.31 0 0 0-1.281-7.402c-16.689-11.769-22.991-30.309-18.753-55.131 10.63-3.76 45.222-17.985 64.519-49.457l148.824 8.079c-5.711 14.681-18.32 50.808-23.823 95.957a5.31 5.31 0 0 0 4.627 5.916 5.315 5.315 0 0 0 5.913-4.629c6.883-56.415 25.69-99.569 25.882-99.997 1.494-3.384-.858-7.249-4.575-7.448L211.486 1.065c-2.036-.132-3.921.936-4.912 2.692-19.796 35.063-62.701 48.277-63.132 48.406a5.315 5.315 0 0 0-3.685 4.043c-7.706 38.412 7.977 58.674 22.49 68.911z" fill="#ffffff" opacity="1" data-original="#000000" class=""></path><path d="M159.49 282.875c-13.87 16.331-16.489 41.964-6.52 63.785 10.41 22.778 30.727 36.814 45.937 44.576 14.266 7.285 26.858 10.348 38.424 9.386 12.858-1.071 24.378-7.796 30.54-17.379 13.298 9.411 14.992 16.684 26.5 22.407 7.533 3.747 16.861 4.299 23.984-.148 7.952-4.967 11.312-16.367 5.944-24.176-1.535-2.7-15.966-14.972-19.44-21.94-2.189-4.391-3.138-9.679-4.144-15.278-1.706-9.531-3.475-19.388-11.722-26.069-8.903-7.206-20.39-6.476-31.692-6.012-5.648.213-9.518.28-12.391-.731 11.593-6.548 18.974-18.642 23.341-28.53 3.439-7.793.187-16.953-7.407-20.856a16.012 16.012 0 0 0-10.623-1.434c-.52-4.368-3.229-8.648-3.408-11.095-.315-4.164 5.088-8.657 8.667-14.093 12.676-19.182 2.145-48.106-27.464-57.286-9.754-3.024-20.825-3.737-33.86-2.199-11.673 1.382-20.426 4.16-27.545 8.737-12.915 8.307-20.742 23.585-19.943 38.925.737 14.121 8.758 27.524 20.929 34.98 3.61 2.212 5.083 7.438 3.151 11.18-2.361 4.577-7.225 8.5-11.258 13.25zm20.698-8.377c4.497-8.711 1.338-19.977-7.041-25.11-9.093-5.571-15.322-15.963-15.872-26.479-.594-11.421 5.467-23.25 15.083-29.435 5.711-3.672 13.035-5.936 23.048-7.122 11.528-1.362 21.16-.778 29.464 1.795 22.506 6.979 30.632 27.838 21.751 41.282-3.53 5.344-11.093 11.554-10.4 20.745.62 8.443 8.919 14.481-2.682 16.647-4.518.845-9.453.188-14.904 1.403-6.67 1.486-13.862 6.751-13.896 14.796a5.312 5.312 0 0 0 4.051 5.184c7.795.664 24.663 11.048 33.364-3.613l6.603-11.144a5.499 5.499 0 0 1 7.23-2.088c2.599 1.333 3.714 4.461 2.542 7.116-3.594 8.146-11.587 22.355-24.679 26.002-3.347.93-4.918 4.793-3.159 7.796 6.51 11.141 16.94 10.734 27.055 10.369 8.235-.339 18.557-1.211 24.56 3.652 5.176 4.194 6.463 11.375 7.957 19.689 1.089 6.092 2.22 12.391 5.094 18.146 4.096 8.222 17.671 20.271 19.845 22.724 2.336 3.66.245 7.939-2.474 9.64-3.475 2.173-8.823 2.033-13.626-.355-9.426-4.689-9.69-11.212-30.255-25.107-2.83-1.911-6.762-.698-7.957 2.57-3.766 10.262-14.99 15.649-24.44 16.435-9.554.801-20.268-1.906-32.714-8.26-13.709-6.997-31.967-19.534-41.103-39.529-8.291-18.146-6.299-39.244 4.953-52.496 3.971-4.67 9.307-8.873 12.602-15.253zm53.819 3.006-.991 1.67c-3.219 5.418-9.554 1.06-14.725.415a10.181 10.181 0 0 1 2.656-.996c3.376-.753 8.853-.508 13.06-1.089z" fill="#ffffff" opacity="1" data-original="#000000" class=""></path></g></svg>