<svg xmlns="http://www.w3.org/2000/svg" version="1.1" xmlns:xlink="http://www.w3.org/1999/xlink" width="512" height="512" x="0" y="0" viewBox="0 0 128 128" style="enable-background:new 0 0 512 512" xml:space="preserve" class=""><g><path d="M86.79 47.48c-1.5-2.27-5.87-9.1-5.92-9.17a8.66 8.66 0 0 0-3.06-2.86L71 31.71a6.57 6.57 0 0 0-7.79 1.1L58 38.05 27.07 7.12a2 2 0 0 0-2.83 0l-3.4 3.4L12.28 2a7.14 7.14 0 0 0-10.07.26A7.14 7.14 0 0 0 2 12.28l8.56 8.56-3.4 3.4a2 2 0 0 0 0 2.83L38.05 58l-5.25 5.25A6.57 6.57 0 0 0 31.71 71l3.74 6.76a8.59 8.59 0 0 0 2.84 3c.28.19 6.82 4.56 9.29 6A9.36 9.36 0 0 0 52.34 88c6.32 0 15-4.63 23-12.64 10.6-10.57 15.3-22.03 11.45-27.88zm-82-38A3.14 3.14 0 0 1 5 5a3.14 3.14 0 0 1 4.41-.26l8.59 8.6L13.34 18zm20.87 1.91 29.51 29.49-14.3 14.3-29.51-29.52zM39 75.87l-3.74-6.76a2.55 2.55 0 0 1 .43-3l30.39-30.48a2.55 2.55 0 0 1 3-.43l6.76 3.74a4.63 4.63 0 0 1 1.64 1.53L81 45.95c-.08.87-1.26 5.49-15.45 19.68-10.44 10.44-18.16 15-19.89 15.31-2.53-1.64-5.14-3.39-5.2-3.43A4.62 4.62 0 0 1 39 75.87zm33.59-3.33c-9.47 9.46-18.92 12.9-22.8 10.94 5.53-3 13.41-9.82 18.61-15 9.26-9.26 13.44-14.87 15.28-18.31C85.49 54 82 63.12 72.54 72.54zM59.51 128a2 2 0 0 1 0-4A64.57 64.57 0 0 0 124 59.51a2 2 0 0 1 4 0A68.57 68.57 0 0 1 59.51 128z" fill="#f50963" opacity="1" data-original="#000000" class=""></path><path d="M59.51 114.19a2 2 0 0 1 0-4 50.74 50.74 0 0 0 50.68-50.68 2 2 0 1 1 4 0 54.75 54.75 0 0 1-54.68 54.68z" fill="#f50963" opacity="1" data-original="#000000" class=""></path><path d="M59.51 99.75a2 2 0 0 1 0-4 36.28 36.28 0 0 0 36.24-36.24 2 2 0 0 1 4 0 40.29 40.29 0 0 1-40.24 40.24z" fill="#f50963" opacity="1" data-original="#000000" class=""></path></g></svg>