<svg xmlns="http://www.w3.org/2000/svg" version="1.1" xmlns:xlink="http://www.w3.org/1999/xlink" width="512" height="512" x="0" y="0" viewBox="0 0 512 512" style="enable-background:new 0 0 512 512" xml:space="preserve" class=""><g><path d="M308.39 314.07v-53.91M362.52 314.07v-53.91M260.21 7.5h224.13c8.95 0 16.2 7.25 16.2 16.2v220.26c0 8.94-7.25 16.2-16.2 16.2H186.57c-8.95 0-16.2-7.26-16.2-16.2V23.7c0-8.95 7.25-16.2 16.2-16.2h38.64" style="stroke-width:15;stroke-linecap:round;stroke-linejoin:round;stroke-miterlimit:10;" fill="none" stroke="#ffffff" stroke-width="15" stroke-linecap="round" stroke-linejoin="round" stroke-miterlimit="10" data-original="#000000" opacity="1" class=""></path><path d="M203.37 217.158V50.5c0-5.523 4.477-10 10-10h244.17c5.523 0 10 4.477 10 10v166.658c0 5.523-4.477 10-10 10H213.37c-5.523 0-10-4.477-10-10zM441.33 398.07h38.04c8.73 0 15.81-7.08 15.81-15.81v-52.39c0-8.73-7.08-15.8-15.81-15.8H191.54c-8.73 0-15.81 7.07-15.81 15.8v52.39c0 8.73 7.08 15.81 15.81 15.81h214.79" style="stroke-width:15;stroke-linecap:round;stroke-linejoin:round;stroke-miterlimit:10;" fill="none" stroke="#ffffff" stroke-width="15" stroke-linecap="round" stroke-linejoin="round" stroke-miterlimit="10" data-original="#000000" opacity="1" class=""></path><circle cx="448.327" cy="356.065" r="14" style="stroke-width:15;stroke-linecap:round;stroke-linejoin:round;stroke-miterlimit:10;" fill="none" stroke="#ffffff" stroke-width="15" stroke-linecap="round" stroke-linejoin="round" stroke-miterlimit="10" data-original="#000000" opacity="1" class=""></circle><path d="M406.327 370.065h-20M358.327 370.065h-20M310.327 370.065h-20M262.327 316.814v78.995M390.06 227.16v-26.81c0-4.42 3.58-8 8-8h69.48M377.009 149.746c2.19 4.127.409 9.279-3.895 11.098-19.298 8.155-40.513 12.658-62.787 12.658S266.838 169 247.54 160.844c-4.303-1.819-6.085-6.971-3.895-11.098l38.29-72.135c1.78-3.353 5.686-5.044 9.314-3.925a64.607 64.607 0 0 0 19.078 2.864c6.643 0 13.05-1.004 19.078-2.864 3.627-1.119 7.534.572 9.314 3.925l38.29 72.135zM226.38 398.07v59.99c0 25.61-19.37 46.44-43.18 46.44H80.32c-23.81 0-43.18-20.83-43.18-46.44V286.03" style="stroke-width:15;stroke-linecap:round;stroke-linejoin:round;stroke-miterlimit:10;" fill="none" stroke="#ffffff" stroke-width="15" stroke-linecap="round" stroke-linejoin="round" stroke-miterlimit="10" data-original="#000000" opacity="1" class=""></path><path d="M196.38 398.07v59.99c0 8.91-6.04 16.44-13.18 16.44H80.32c-7.14 0-13.18-7.53-13.18-16.44V286.07" style="stroke-width:15;stroke-linecap:round;stroke-linejoin:round;stroke-miterlimit:10;" fill="none" stroke="#ffffff" stroke-width="15" stroke-linecap="round" stroke-linejoin="round" stroke-miterlimit="10" data-original="#000000" opacity="1" class=""></path><path d="M77.33 218.01v50.24c0 11.43-9.27 20.69-20.69 20.69h-8.92c-11.43 0-20.7-9.26-20.7-20.69v-47.89" style="stroke-width:15;stroke-linecap:round;stroke-linejoin:round;stroke-miterlimit:10;" fill="none" stroke="#ffffff" stroke-width="15" stroke-linecap="round" stroke-linejoin="round" stroke-miterlimit="10" data-original="#000000" opacity="1" class=""></path><path d="M74.987 113.331H25.768c-7.902 0-14.308 6.406-14.308 14.308v66.221c0 16.764 13.59 30.354 30.354 30.354h17.128c16.764 0 30.354-13.59 30.354-30.354v-66.221c-.001-7.902-6.407-14.308-14.309-14.308zM89.295 152.67H11.46M437.54 70.5h-41.213M437.54 100.5h-41.213" style="stroke-width:15;stroke-linecap:round;stroke-linejoin:round;stroke-miterlimit:10;" fill="none" stroke="#ffffff" stroke-width="15" stroke-linecap="round" stroke-linejoin="round" stroke-miterlimit="10" data-original="#000000" opacity="1" class=""></path></g></svg>